<svg width="33" height="36" viewBox="0 0 33 36" fill="none" xmlns="http://www.w3.org/2000/svg">
<g id="Vector" filter="url(#filter0_d_309_752)">
<path d="M11.1797 13.4694L22.9974 15.5532L22.5806 17.9167L10.7629 15.833L11.1797 13.4694ZM10.2748 4.78029L11.4566 4.98867L11.8733 2.62513L14.2369 3.04188L13.8201 5.40542L23.2743 7.07244L23.691 4.7089L26.0545 5.12566L25.6378 7.4892L26.8196 7.69758C28.1313 7.92888 28.9837 9.17584 28.7545 10.4758L25.8491 27.0226C25.6198 28.3226 24.3805 29.2007 23.0688 28.9694L6.52399 26.0521C5.22404 25.8229 4.34799 24.5718 4.57721 23.2718L7.4945 6.72707C7.72371 5.42712 8.97484 4.55107 10.2748 4.78029ZM6.94074 23.6886L23.4855 26.6059L25.7777 13.6064L9.2329 10.6891L6.94074 23.6886ZM13.8915 18.8216L22.1639 20.2803L21.7471 22.6438L13.4747 21.1852L13.8915 18.8216Z" fill="#BF5AA4"/>
</g>
<defs>
<filter id="filter0_d_309_752" x="0.540771" y="0.625122" width="32.251" height="34.3813" filterUnits="userSpaceOnUse" color-interpolation-filters="sRGB">
<feFlood flood-opacity="0" result="BackgroundImageFix"/>
<feColorMatrix in="SourceAlpha" type="matrix" values="0 0 0 0 0 0 0 0 0 0 0 0 0 0 0 0 0 0 127 0" result="hardAlpha"/>
<feOffset dy="2"/>
<feGaussianBlur stdDeviation="2"/>
<feComposite in2="hardAlpha" operator="out"/>
<feColorMatrix type="matrix" values="0 0 0 0 1 0 0 0 0 1 0 0 0 0 1 0 0 0 0.25 0"/>
<feBlend mode="normal" in2="BackgroundImageFix" result="effect1_dropShadow_309_752"/>
<feBlend mode="normal" in="SourceGraphic" in2="effect1_dropShadow_309_752" result="shape"/>
</filter>
</defs>
</svg>
