<svg width="23" height="20" viewBox="0 0 23 20" fill="none" xmlns="http://www.w3.org/2000/svg">
<path id="path849" d="M10.5858 2.67018L10.9853 2.36949L10.5858 2.67018C10.6296 2.72831 10.673 2.78358 10.7088 2.8266C10.726 2.84718 10.7458 2.87031 10.7651 2.89093C10.7737 2.90005 10.7902 2.91734 10.811 2.93555C10.8203 2.94379 10.8417 2.96212 10.871 2.9813C10.8857 2.99088 10.912 3.00711 10.9472 3.02236C10.9762 3.03495 11.049 3.06388 11.147 3.06388C11.245 3.06388 11.3178 3.03499 11.3468 3.0224C11.382 3.00715 11.4084 2.99093 11.423 2.98135C11.4524 2.96217 11.4737 2.94383 11.4831 2.93558C11.5038 2.91736 11.5204 2.90006 11.529 2.89095C11.5483 2.87031 11.5681 2.84718 11.5853 2.82659C11.6211 2.78357 11.6645 2.72831 11.7083 2.67018C12.5774 1.51547 14.0382 0.698877 15.5628 0.532807C18.4865 0.214331 21.1956 2.2524 21.7284 5.1887L22.2203 5.09944L21.7284 5.1887C21.7564 5.34338 21.78 5.65036 21.789 5.98612C21.798 6.32149 21.7911 6.63154 21.7712 6.79137C21.7255 7.15974 21.5272 8.12762 21.4153 8.52462C20.5796 11.4898 18.0251 14.907 14.6924 17.4261C13.8811 18.0394 12.886 18.6654 12.0983 19.0605C11.9562 19.1317 11.7191 19.2399 11.4962 19.3369C11.3857 19.385 11.2819 19.4288 11.1984 19.4627C11.1819 19.4694 11.1666 19.4756 11.1523 19.4812C11.1127 19.4682 11.0639 19.4505 11.0088 19.4284C8.13282 18.2752 4.67529 15.3027 2.62696 12.1856C1.56383 10.5677 0.976085 9.18298 0.659098 7.58142C0.506145 6.80864 0.487289 6.59514 0.505692 5.95265C0.524412 5.29906 0.591607 4.91609 0.780258 4.35919C1.56187 2.05187 3.71786 0.503074 6.14335 0.503074C7.22063 0.503074 8.3333 0.834629 9.2327 1.42335L9.50181 1.01224L9.2327 1.42335C9.73029 1.74907 10.2656 2.24473 10.5858 2.67018Z" fill="#FFD233" stroke="black"/>
</svg>
