<svg width="190" height="72" viewBox="0 0 190 72" fill="none" xmlns="http://www.w3.org/2000/svg">
<path id="path847" d="M48.8738 0C42.8257 3.55037 37.7066 18.3687 37.2459 19.8191C34.9879 19.2843 31.0078 18.9658 29.0617 19.0954C27.1156 19.225 23.9075 19.685 21.3023 21.5602L20.7929 20.661C19.3391 18.0953 18.4711 16.8211 16.0153 13.6482C12.2316 8.7596 8.68114 5.53434 5.32908 3.94082C3.64028 3.13799 2.51524 2.82712 1.66623 2.92857C1.1631 2.9887 1.02783 3.11451 0.721263 3.8084C0.153513 5.09346 -0.170309 7.01253 0.0927091 11.9691C0.280017 15.4988 0.650204 16.992 1.00243 18.6696C1.99124 23.3791 3.17759 26.8133 5.15012 30.6763L6.1822 32.6976C3.77906 37.0112 1.91766 43.2439 2.91906 48.8112C3.6855 52.503 5.84801 56.4713 8.59832 59.2333L9.9343 60.575C9.50253 63.6629 9.11357 66.3657 8.61053 69.6569C8.44496 70.7419 8.15997 71.5195 8.79985 71.8396C9.42815 72.2602 9.86602 71.7754 10.851 71.285C12.3159 70.603 14.6444 69.3358 19.5586 66.9887L20.7111 67.4963C22.1303 68.1214 24.8813 68.8635 27.1568 69.2352C31.3482 69.9041 36.2257 69.6317 40.6045 68.2307C44.3974 66.8007 49.2573 62.8604 50.9763 58.9092C50.9278 58.8619 50.4466 59.0933 49.9073 59.4234C45.6755 62.013 41.9706 63.633 37.7123 64.7558C35.2571 65.4032 33.2266 65.5697 30.4677 65.3496C26.3773 65.0009 21.286 63.5224 16.9619 61.369C14.7588 60.4367 10.9028 57.3663 9.64749 55.1315C8.39219 52.8967 7.41089 51.3306 6.76606 47.1411C6.2885 44.0383 6.77625 40.828 7.2898 38.7496C7.73898 36.9567 9.45144 32.6721 9.45144 32.6721C9.45144 32.6721 6.26543 25.8098 5.48591 23.2925C4.68523 20.7069 3.01258 15.0879 2.50776 10.7667C2.31888 9.14532 2.15071 4.65737 2.42385 4.4815C2.69699 4.30562 3.59984 4.64458 4.40486 5.25483C5.20988 5.86509 11.5621 10.3505 15.3467 15.2717C16.65 16.9664 18.1011 18.9797 18.5716 19.7457C19.2721 20.8863 20.5311 22.7397 20.804 23.069C23.3378 21.4619 26.6768 20.5219 29.1027 20.3006C31.5287 20.0793 35.2956 20.4797 37.9733 21.1836C40.464 14.1767 44.5368 4.9276 48.8849 1.2356C49.429 1.29693 51.151 4.83595 52.2033 8.11353C53.2556 11.3911 56.4206 19.4852 52.827 31.5293C51.829 35.1194 53.8636 31.8245 54.4858 29.4931C56.9498 21.7186 55.4682 10.8726 52.0094 4.09262C51.0936 2.29743 49.6291 0.00254202 48.8738 0ZM49.1667 11.2017C48.9944 11.2013 48.7872 11.271 48.5252 11.4072C47.9383 11.7123 46.6254 12.8744 45.2491 14.8709C43.3443 17.6342 43.4369 18.7955 44.1708 19.8263C44.9047 20.8571 45.2418 21.3877 46.1605 22.0761C47.0792 22.7645 47.3418 22.9664 47.965 22.9535C49.0492 22.9311 49.4434 22.3626 50.0316 19.9729C50.6992 17.2605 50.7388 14.488 50.1364 12.6352C49.8196 11.6608 49.6071 11.2026 49.1667 11.2017ZM8.85798 12.695C8.46951 12.701 8.23911 13.0802 7.94109 13.9148C7.62824 14.791 7.46567 16.0818 7.46586 17.3321C7.46635 20.5761 7.99014 22.1423 8.6061 23.1918C9.22207 24.2413 10.6409 23.8255 11.6849 23.3698C12.729 22.9142 13.5145 22.3124 13.8495 21.9882C14.9801 20.8943 15.2216 20.4212 13.8239 17.8184C12.8163 15.9422 11.1868 13.9913 9.94956 13.1799C9.46362 12.8613 9.12378 12.6908 8.85798 12.695ZM48.4135 13.017C48.4521 13.0184 48.4819 13.035 48.5022 13.0666C48.6825 13.3478 48.6754 15.3973 48.522 16.6767C48.3686 17.956 47.8231 19.728 47.431 20.0445C46.5401 19.2863 45.284 17.9377 45.284 17.9377C45.2939 17.744 45.3272 17.1288 46.4517 15.3248C47.4357 13.7463 48.1433 13.0075 48.4135 13.017ZM9.75291 14.5745C9.9866 14.5892 10.8054 15.1848 12.004 17.1771C13.2824 19.3021 13.1271 19.9053 13.1271 19.9053C13.1271 19.9053 12.7014 20.1468 12.1258 20.4671L10.8228 21.1922C10.5329 20.9453 10.0684 19.1532 9.88441 18.088C9.68508 16.934 9.51537 14.655 9.714 14.5791C9.72432 14.5751 9.73733 14.5735 9.75291 14.5745ZM136.262 33.8061C135.591 33.8061 134.91 33.8748 134.218 34.0121C132.835 34.2765 131.604 34.8105 130.526 35.614C128.685 36.987 127.663 38.7364 127.46 40.8621C127.317 42.4386 127.46 43.7048 127.887 44.6609C128.324 45.6169 128.924 46.3696 129.687 46.9188C130.745 47.7019 131.864 48.1851 133.043 48.3681C134.223 48.541 135.408 48.8004 136.598 49.1462C137.096 49.2886 137.402 49.4717 137.513 49.6954C137.727 50.1734 137.58 50.5142 137.071 50.7176C136.573 50.9108 136.135 50.9312 135.759 50.7786C135.444 50.6566 135.23 50.4684 135.118 50.2141C135.078 50.1429 135.052 50.0717 135.042 50.0005C134.95 49.6344 134.569 49.3547 133.898 49.1615C133.226 48.958 132.474 48.8563 131.64 48.8563C131.131 48.8665 130.597 48.9174 130.038 49.0089C129.489 49.1004 128.985 49.253 128.528 49.4666C127.49 49.9344 127.063 50.5955 127.246 51.4499C127.673 53.2603 128.736 54.7605 130.435 55.9504C132.408 57.354 134.747 57.9236 137.452 57.6591C140.168 57.3845 142.319 56.3268 143.906 54.4859C145.248 52.9297 145.792 51.1702 145.538 49.2072C145.294 47.2341 144.338 45.6373 142.67 44.4168C141.317 43.4302 139.471 42.7335 137.132 42.3267C136.939 42.2962 136.751 42.2657 136.568 42.2352C136.384 42.1945 136.217 42.1589 136.064 42.1284C134.63 41.8334 134.305 41.4164 135.088 40.8774C135.871 40.3383 136.517 40.2671 137.025 40.6638C137.229 40.8265 137.33 40.9994 137.33 41.1825C137.341 41.3656 137.452 41.5334 137.666 41.6859C137.839 41.8182 138.032 41.8741 138.246 41.8538C138.592 41.8436 139.11 41.7775 139.802 41.6554C140.493 41.5334 141.17 41.3503 141.831 41.1062C142.492 40.8621 143.041 40.557 143.479 40.1908C143.926 39.8145 144.074 39.367 143.921 38.8483C143.524 37.5057 142.802 36.4327 141.755 35.6292C140.717 34.8156 139.548 34.2765 138.246 34.0121C137.595 33.8748 136.934 33.8061 136.262 33.8061ZM155.912 33.8061C155.241 33.8061 154.56 33.8748 153.868 34.0121C152.485 34.2765 151.254 34.8105 150.176 35.614C148.335 36.987 147.313 38.7364 147.11 40.8621C146.967 42.4386 147.11 43.7048 147.537 44.6609C147.974 45.6169 148.574 46.3696 149.337 46.9188C150.395 47.7019 151.514 48.1851 152.693 48.3681C153.873 48.541 155.058 48.8004 156.248 49.1462C156.746 49.2886 157.051 49.4717 157.163 49.6954C157.377 50.1734 157.229 50.5142 156.721 50.7176C156.223 50.9108 155.785 50.9312 155.409 50.7786C155.094 50.6566 154.88 50.4684 154.768 50.2141C154.727 50.1429 154.702 50.0717 154.692 50.0005C154.6 49.6344 154.219 49.3547 153.548 49.1615C152.876 48.958 152.124 48.8563 151.29 48.8563C150.781 48.8665 150.247 48.9174 149.688 49.0089C149.139 49.1004 148.635 49.253 148.177 49.4666C147.14 49.9344 146.713 50.5955 146.896 51.4499C147.323 53.2603 148.386 54.7605 150.085 55.9504C152.058 57.354 154.397 57.9236 157.102 57.6591C159.818 57.3845 161.969 56.3268 163.556 54.4859C164.898 52.9297 165.442 51.1702 165.188 49.2072C164.944 47.2341 163.988 45.6373 162.32 44.4168C160.967 43.4302 159.121 42.7335 156.782 42.3267C156.589 42.2962 156.401 42.2657 156.217 42.2352C156.034 42.1945 155.867 42.1589 155.714 42.1284C154.28 41.8334 153.954 41.4164 154.738 40.8774C155.521 40.3383 156.167 40.2671 156.675 40.6638C156.879 40.8265 156.98 40.9994 156.98 41.1825C156.99 41.3656 157.102 41.5334 157.316 41.6859C157.489 41.8182 157.682 41.8741 157.896 41.8538C158.241 41.8436 158.76 41.7775 159.452 41.6554C160.143 41.5334 160.82 41.3503 161.481 41.1062C162.142 40.8621 162.691 40.557 163.129 40.1908C163.576 39.8145 163.724 39.367 163.571 38.8483C163.174 37.5057 162.452 36.4327 161.405 35.6292C160.367 34.8156 159.198 34.2765 157.896 34.0121C157.245 33.8748 156.584 33.8061 155.912 33.8061ZM98.2465 34.1714C98.0899 34.172 97.9314 34.1748 97.7712 34.1799C96.4998 34.2104 95.3251 34.3884 94.247 34.7139C93.1791 35.0292 92.6095 35.497 92.5383 36.1174C92.4468 36.8701 92.4518 38.3703 92.5536 40.618C92.6553 42.8556 92.818 45.1847 93.0417 47.6053C93.2655 50.026 93.535 52.2076 93.8503 54.1502C94.1656 56.0928 94.5013 57.1404 94.8572 57.293C95.6506 57.6286 97.0033 57.7608 98.9154 57.6896C100.827 57.6083 101.89 57.3642 102.104 56.9574C102.328 56.6522 102.531 55.6453 102.714 53.9366C102.897 52.2279 103.035 50.2599 103.126 48.0325C103.218 45.8051 103.253 43.5472 103.233 41.2588C103.223 38.9703 103.136 37.0938 102.974 35.6292C102.912 35.1105 102.348 34.7291 101.28 34.485C100.355 34.2714 99.3434 34.1669 98.2465 34.1714ZM39.7782 34.292C39.6438 34.2936 39.5079 34.2969 39.3706 34.302C38.2823 34.3325 37.2805 34.4749 36.3651 34.7291C35.4498 34.9834 34.9819 35.3546 34.9616 35.8428C34.9209 36.2395 34.9158 36.8599 34.9463 37.7041C34.987 38.5381 35.0226 39.4992 35.0531 40.5875C34.5751 39.8857 33.8072 38.8534 32.7494 37.4905C31.7018 36.1276 30.8271 35.2885 30.1254 34.9732C29.6473 34.7698 28.9608 34.6172 28.0658 34.5155C27.1809 34.4138 26.2961 34.3782 25.4112 34.4087C24.5365 34.4291 23.7585 34.5206 23.077 34.6834C22.4058 34.8359 22.0498 35.0597 22.0091 35.3546C21.7752 36.8192 21.6277 38.711 21.5667 41.0299C21.5056 43.3489 21.5006 45.6373 21.5514 47.8952C21.6124 50.1531 21.7192 52.1517 21.8718 53.8909C22.0345 55.6301 22.2278 56.6522 22.4515 56.9574C22.6448 57.3642 23.6568 57.6083 25.4875 57.6896C27.3284 57.771 28.6252 57.6388 29.3778 57.293C29.6321 57.1709 29.8406 56.4641 30.0033 55.1724C30.166 53.8705 30.3237 52.3144 30.4763 50.504C30.6288 50.7176 30.9899 51.1651 31.5594 51.8465C32.129 52.528 32.7596 53.2552 33.4512 54.0282C34.1428 54.791 34.8192 55.5029 35.4803 56.164C36.1414 56.815 36.6448 57.2167 36.9906 57.3693C37.2347 57.4811 37.6924 57.5676 38.3637 57.6286C39.0451 57.6896 39.752 57.71 40.4843 57.6896C41.2268 57.6693 41.9031 57.6032 42.5134 57.4913C43.1236 57.3794 43.4898 57.2015 43.6118 56.9574C43.7237 56.6726 43.8305 55.6707 43.9322 53.9519C44.0339 52.2229 44.1 50.2294 44.1305 47.9715C44.1712 45.7136 44.1712 43.4201 44.1305 41.0909C44.1 38.7618 44.0085 36.8497 43.8559 35.3546C43.8051 34.9783 43.3169 34.6986 42.3913 34.5155C41.5904 34.3554 40.7194 34.2809 39.7782 34.292ZM81.2333 34.348C79.8261 34.3504 78.4327 34.3706 77.0533 34.4087C74.8462 34.4596 72.8935 34.5562 71.1949 34.6986C69.4964 34.841 68.4997 35.0292 68.2047 35.2631C68.0013 35.375 67.8691 35.7971 67.8081 36.5294C67.7572 37.2515 67.7521 38.0651 67.7928 38.9703C67.8335 39.8654 67.9199 40.7451 68.0522 41.6097C68.1844 42.464 68.3471 43.0844 68.5404 43.4709C68.6522 43.715 69.2523 43.9032 70.3406 44.0354C71.4289 44.1574 72.7256 44.2337 74.2309 44.2642C74.4038 47.1426 74.653 49.9904 74.9785 52.8077C75.3141 55.6148 75.6904 57.1099 76.1074 57.293C76.5041 57.4659 77.0889 57.5829 77.8619 57.6439C78.6348 57.7049 79.4129 57.7202 80.1961 57.6896C80.9894 57.6591 81.7013 57.5829 82.3319 57.4608C82.9625 57.3388 83.3337 57.176 83.4456 56.9726C83.7406 56.5861 83.9796 55.0656 84.1627 52.411C84.3457 49.7463 84.4525 46.9798 84.483 44.1117C85.551 44.071 86.5121 44.0252 87.3665 43.9744C88.2208 43.9133 88.8412 43.8523 89.2277 43.7913C89.6447 43.7608 89.9956 43.2675 90.2804 42.3114C90.5753 41.3554 90.7533 40.3078 90.8144 39.1687C90.8754 38.0295 90.7991 36.982 90.5855 36.0259C90.3719 35.0698 89.9753 34.5715 89.3955 34.5308C87.9309 34.4393 86.0595 34.3833 83.7813 34.363C82.9269 34.3515 82.0777 34.3466 81.2333 34.348ZM56.7016 34.4812C56.1829 34.4787 55.654 34.5003 55.1149 34.5461C54.0368 34.6376 53.0503 34.8054 52.1553 35.0495C51.2704 35.2834 50.7364 35.5479 50.5534 35.8428C50.0957 36.6056 49.5566 37.9227 48.9362 39.7942C48.326 41.6656 47.7462 43.6743 47.197 45.8204C46.6478 47.9562 46.1901 50.0158 45.824 51.9991C45.4578 53.9824 45.2849 55.4673 45.3052 56.4539C45.3154 56.7489 45.4171 56.998 45.6104 57.2015C45.824 57.4659 46.7037 57.6235 48.2497 57.6744C49.8058 57.7151 50.7924 57.6896 51.2094 57.5981C51.3924 57.5574 51.5298 57.4811 51.6213 57.3693C51.8044 57.1862 52.0891 56.7031 52.4756 55.9199C52.8621 55.1368 53.2079 54.4248 53.5131 53.7841C53.747 53.2857 54.2555 53.0263 55.0387 53.006L57.5407 53.0213C57.856 53.0619 58.1102 53.1992 58.3035 53.4332C58.6289 53.8298 58.9595 54.5621 59.2951 55.6301C59.6409 56.6878 59.9969 57.3286 60.3631 57.5523C60.4749 57.6235 60.597 57.6693 60.7292 57.6896C61.0648 57.7303 61.8938 57.7151 63.216 57.6439C64.5483 57.5625 65.662 57.4455 66.5571 57.293C67.0859 57.2015 67.4572 57.0387 67.6708 56.8048C67.8844 56.5607 67.925 56.1335 67.7928 55.5233C67.5996 54.6893 67.208 53.2654 66.6181 51.2515C66.0282 49.2377 65.362 47.1375 64.6195 44.9508C63.8771 42.7539 63.1143 40.7248 62.3311 38.8635C61.5581 37.0023 60.8869 35.7971 60.3173 35.2478C59.9206 34.8817 59.2239 34.6528 58.2272 34.5613C57.7288 34.5105 57.2203 34.4838 56.7016 34.4812ZM116.14 34.4812C115.621 34.4787 115.092 34.5003 114.553 34.5461C113.475 34.6376 112.488 34.8054 111.593 35.0495C110.708 35.2834 110.174 35.5479 109.991 35.8428C109.534 36.6056 108.995 37.9227 108.374 39.7942C107.764 41.6656 107.184 43.6743 106.635 45.8204C106.086 47.9562 105.628 50.0158 105.262 51.9991C104.896 53.9824 104.723 55.4673 104.743 56.4539C104.753 56.7489 104.855 56.998 105.048 57.2015C105.262 57.4659 106.142 57.6235 107.688 57.6744C109.244 57.7151 110.23 57.6896 110.647 57.5981C110.83 57.5574 110.968 57.4811 111.059 57.3693C111.242 57.1862 111.527 56.7031 111.914 55.9199C112.3 55.1368 112.646 54.4248 112.951 53.7841C113.185 53.2857 113.693 53.0263 114.477 53.006L116.979 53.0213C117.294 53.0619 117.548 53.1992 117.741 53.4332C118.067 53.8298 118.397 54.5621 118.733 55.6301C119.079 56.6878 119.435 57.3286 119.801 57.5523C119.913 57.6235 120.035 57.6693 120.167 57.6896C120.503 57.7303 121.332 57.7151 122.654 57.6439C123.986 57.5625 125.1 57.4455 125.995 57.293C126.524 57.2015 126.895 57.0387 127.109 56.8048C127.322 56.5607 127.363 56.1335 127.231 55.5233C127.038 54.6893 126.646 53.2654 126.056 51.2515C125.466 49.2377 124.8 47.1375 124.058 44.9508C123.315 42.7539 122.552 40.7248 121.769 38.8635C120.996 37.0023 120.325 35.7971 119.755 35.2478C119.359 34.8817 118.662 34.6528 117.665 34.5613C117.167 34.5105 116.658 34.4838 116.14 34.4812ZM177.896 34.4812C177.378 34.4787 176.849 34.5003 176.31 34.5461C175.232 34.6376 174.245 34.8054 173.35 35.0495C172.465 35.2834 171.931 35.5479 171.748 35.8428C171.291 36.6056 170.752 37.9227 170.131 39.7942C169.521 41.6656 168.941 43.6743 168.392 45.8204C167.843 47.9562 167.385 50.0158 167.019 51.9991C166.653 53.9824 166.48 55.4673 166.5 56.4539C166.51 56.7489 166.612 56.998 166.805 57.2015C167.019 57.4659 167.899 57.6235 169.445 57.6744C171.001 57.7151 171.987 57.6896 172.404 57.5981C172.587 57.5574 172.725 57.4811 172.816 57.3693C172.999 57.1862 173.284 56.7031 173.671 55.9199C174.057 55.1368 174.403 54.4248 174.708 53.7841C174.942 53.2857 175.45 53.0263 176.234 53.006L178.736 53.0213C179.051 53.0619 179.305 53.1992 179.498 53.4332C179.824 53.8298 180.154 54.5621 180.49 55.6301C180.836 56.6878 181.192 57.3286 181.558 57.5523C181.67 57.6235 181.792 57.6693 181.924 57.6896C182.26 57.7303 183.089 57.7151 184.411 57.6439C185.743 57.5625 186.857 57.4455 187.752 57.293C188.281 57.2015 188.652 57.0387 188.866 56.8048C189.079 56.5607 189.12 56.1335 188.988 55.5233C188.794 54.6893 188.403 53.2654 187.813 51.2515C187.223 49.2377 186.557 47.1375 185.814 44.9508C185.072 42.7539 184.309 40.7248 183.526 38.8635C182.753 37.0023 182.082 35.7971 181.512 35.2478C181.116 34.8817 180.419 34.6528 179.422 34.5613C178.924 34.5105 178.415 34.4838 177.896 34.4812ZM55.8637 43.5698C56.2043 43.5773 56.6158 43.9868 57.0982 44.7982C57.7695 45.917 58.0746 46.634 58.0136 46.9493C57.9119 47.468 57.2762 47.7528 56.1066 47.8037C54.9471 47.8443 54.2911 47.6409 54.1386 47.1934C54.047 46.929 54.164 46.3797 54.4894 45.5457C54.8251 44.7016 55.1607 44.1015 55.4964 43.7455C55.6079 43.6254 55.7304 43.5668 55.8637 43.5698ZM115.302 43.5698C115.642 43.5773 116.054 43.9868 116.536 44.7982C117.207 45.917 117.513 46.634 117.452 46.9493C117.35 47.468 116.714 47.7528 115.545 47.8037C114.385 47.8443 113.729 47.6409 113.577 47.1934C113.485 46.929 113.602 46.3797 113.927 45.5457C114.263 44.7016 114.599 44.1015 114.934 43.7455C115.046 43.6254 115.168 43.5668 115.302 43.5698ZM177.059 43.5698C177.399 43.5773 177.811 43.9868 178.293 44.7982C178.964 45.917 179.27 46.634 179.209 46.9493C179.107 47.468 178.471 47.7528 177.301 47.8037C176.142 47.8443 175.486 47.6409 175.333 47.1934C175.242 46.929 175.359 46.3797 175.684 45.5457C176.02 44.7016 176.356 44.1015 176.691 43.7455C176.803 43.6254 176.925 43.5668 177.059 43.5698Z" fill="#F2F2F2"/>
</svg>
