<svg width="21" height="20" viewBox="0 0 21 20" fill="none" xmlns="http://www.w3.org/2000/svg">
<path id="Vector" d="M19.8164 7.29306L19.8166 7.29308C20.0586 7.31497 20.2642 7.47864 20.34 7.71116C20.4159 7.94515 20.3457 8.19915 20.1623 8.36013L15.6083 12.3533L15.3844 12.5496L15.4503 12.84L16.793 18.7535C16.793 18.7536 16.793 18.7537 16.793 18.7538C16.8473 18.9944 16.7539 19.2407 16.5564 19.3835L16.556 19.3838C16.3581 19.5272 16.0953 19.5387 15.8858 19.4136C15.8857 19.4135 15.8857 19.4135 15.8856 19.4135L10.6917 16.3073L10.4351 16.1539L10.1785 16.3073L4.9835 19.4135L4.98336 19.4136C4.88673 19.4714 4.77905 19.5 4.67132 19.5C4.54556 19.5 4.42113 19.4615 4.31478 19.3842L4.31379 19.3835C4.11628 19.2407 4.02293 18.9945 4.07716 18.7539C4.07718 18.7538 4.0772 18.7537 4.07723 18.7536L5.41989 12.84L5.48581 12.5496L5.26195 12.3533L0.707866 8.36005C0.707854 8.36004 0.707842 8.36003 0.70783 8.36002C0.52455 8.19925 0.45449 7.94478 0.52995 7.71201C0.606438 7.4793 0.812032 7.31555 1.05408 7.29304C1.05423 7.29302 1.05437 7.29301 1.05452 7.293L7.07933 6.74611L7.37666 6.71912L7.49394 6.44456L9.87489 0.870258L9.875 0.87002C9.97107 0.644766 10.1902 0.5 10.4351 0.5C10.6795 0.5 10.899 0.644362 10.9964 0.870509C10.9965 0.870698 10.9965 0.870887 10.9966 0.871077L13.3772 6.44456L13.4945 6.71912L13.7918 6.74611L19.8164 7.29306Z" fill="#FFD233" stroke="black"/>
</svg>
