<svg width="26" height="18" viewBox="0 0 26 18" fill="none" xmlns="http://www.w3.org/2000/svg">
<g id="Group 22">
<path id="Vector" d="M25.0244 2.81868C24.8777 2.27386 24.5913 1.77717 24.194 1.37807C23.7966 0.978966 23.3021 0.691382 22.7597 0.543956C20.7739 0 12.7816 0 12.7816 0C12.7816 0 4.78934 0.0164835 2.80358 0.56044C2.26115 0.707866 1.76663 0.995449 1.36928 1.39455C0.971928 1.79365 0.685605 2.29034 0.538824 2.83517C-0.0618283 6.37912 -0.294868 11.7791 0.555236 15.1813C0.702016 15.7261 0.988339 16.2228 1.38569 16.6219C1.78304 17.021 2.27756 17.3086 2.81999 17.456C4.80576 18 12.798 18 12.798 18C12.798 18 20.7903 18 22.7761 17.456C23.3185 17.3086 23.813 17.021 24.2104 16.6219C24.6078 16.2228 24.8941 15.7261 25.0409 15.1813C25.6743 11.6324 25.8696 6.23571 25.0244 2.81868Z" fill="#FF0000"/>
<path id="Vector_2" d="M10.2378 12.8571L16.8679 8.99996L10.2378 5.14282V12.8571Z" fill="#F2F2F2"/>
</g>
</svg>
