<svg width="28" height="28" viewBox="0 0 28 28" fill="none" xmlns="http://www.w3.org/2000/svg">
<g id="Group">
<g id="Group_2">
<g id="Group_3">
<path id="Vector" d="M25.2606 5.41486H23.2935C23.553 5.00424 23.7242 4.54332 23.773 4.05585C23.929 2.49797 23.1085 1.10143 21.7117 0.482279C20.4278 -0.0868381 18.985 0.145812 17.9461 1.08813L15.4623 3.33916C14.9786 2.8101 14.2832 2.47759 13.5115 2.47759C12.7383 2.47759 12.0419 2.81116 11.558 3.34185L9.0711 1.08787C8.03045 0.145548 6.58821 -0.0862048 5.30488 0.482596C3.90845 1.1018 3.08784 2.49881 3.24428 4.05664C3.29321 4.54374 3.46432 5.00445 3.72373 5.41486H1.76235C0.788995 5.41486 0 6.20391 0 7.17721V9.82075C0 10.3074 0.394524 10.702 0.8812 10.702H26.1418C26.6284 10.702 27.023 10.3074 27.023 9.82075V7.17721C27.0229 6.20391 26.2339 5.41486 25.2606 5.41486ZM10.8679 5.12114V5.41486H6.72248C5.6272 5.41486 4.76522 4.39379 5.03877 3.25345C5.15927 2.75125 5.52175 2.32316 5.99059 2.10645C6.63439 1.80888 7.34754 1.90441 7.88826 2.39383L10.8686 5.09517C10.8685 5.10388 10.8679 5.11243 10.8679 5.12114ZM22.0244 3.82188C21.9588 4.73775 21.1314 5.41496 20.2132 5.41496H16.155V5.12125C16.155 5.11085 16.1544 5.10056 16.1543 5.09016C16.8294 4.47813 18.2941 3.15063 19.0885 2.43057C19.5399 2.02137 20.1717 1.83036 20.7556 2.00453C21.5936 2.2545 22.0857 2.96712 22.0244 3.82188Z" fill="#FFD233"/>
</g>
</g>
<g id="Group_4">
<g id="Group_5">
<path id="Vector_2" d="M1.76221 12.4644V25.3884C1.76221 26.3617 2.5512 27.1507 3.52456 27.1507H11.7489V12.4644H1.76221Z" fill="#FFD233"/>
</g>
</g>
<g id="Group_6">
<g id="Group_7">
<path id="Vector_3" d="M15.2739 12.4644V27.1507H23.4983C24.4716 27.1507 25.2606 26.3617 25.2606 25.3884V12.4644H15.2739Z" fill="#FFD233"/>
</g>
</g>
</g>
</svg>
